<?xml version="1.0" encoding="UTF-8"?>
<svg id="Layer_1" data-name="Layer 1" xmlns="http://www.w3.org/2000/svg" viewBox="0 0 13.12 12.98">
  <defs>
    <style>
      .cls-1 {
        fill: #fff;
        fill-rule: evenodd;
        stroke-width: 0px;
      }
    </style>
  </defs>
  <path class="cls-1" d="m0,11.59c.09-.41.37-.69.65-.97,1.34-1.33,2.68-2.67,4.02-4.01.04-.04.09-.06.14-.09,0-.02,0-.04,0-.06-.04-.03-.09-.05-.13-.09C3.27,4.96,1.86,3.55.45,2.15.09,1.79-.03,1.36.12.88.27.4.61.11,1.1.02c.41-.07.78.05,1.08.35,1.4,1.39,2.8,2.78,4.2,4.17.05.05.1.11.17.18.05-.05.09-.09.12-.12,1.4-1.39,2.79-2.79,4.19-4.18.68-.68,1.81-.42,2.09.48.14.47.05.89-.3,1.24-1.4,1.41-2.81,2.81-4.22,4.22-.03.03-.08.06-.14.1.08.07.13.11.18.16,1.42,1.42,2.85,2.83,4.27,4.25.27.27.4.59.38.97-.02.61-.54,1.13-1.16,1.14-.46.02-.83-.14-1.16-.47-1.38-1.39-2.77-2.77-4.15-4.15-.03-.04-.06-.08-.12-.16-.05.07-.07.12-.11.16-1.41,1.41-2.83,2.83-4.24,4.24-.43.43-1.15.51-1.67.19-.27-.16-.41-.41-.49-.71,0-.04-.02-.07-.03-.11v-.39Z"/>
</svg>