<?xml version="1.0" encoding="utf-8"?>
<!-- Generator: Adobe Illustrator 27.8.1, SVG Export Plug-In . SVG Version: 6.00 Build 0)  -->
<svg version="1.1" id="Layer_1" xmlns="http://www.w3.org/2000/svg" xmlns:xlink="http://www.w3.org/1999/xlink" x="0px" y="0px"
	 viewBox="0 0 21 12" style="enable-background:new 0 0 21 12;" xml:space="preserve">
<style type="text/css">
	.st0{fill-rule:evenodd;clip-rule:evenodd;fill:#C4BFD4;}
</style>
<path class="st0" d="M1.8,0C2.4,0,2.7,0.4,3,0.7c2.4,2.4,4.9,4.7,7.3,7.1c0.1,0.1,0.1,0.1,0.1,0.2c0.1-0.1,0.2-0.1,0.2-0.2
	c2.5-2.5,5.1-4.9,7.6-7.4c0.4-0.3,0.8-0.5,1.3-0.4c0.4,0.1,1.3,1,1.4,1.4c0.1,0.3,0,0.7-0.2,1c-0.1,0.1-0.1,0.2-0.2,0.2
	c-3.1,3-6.1,5.9-9.2,8.9c-0.5,0.4-1,0.5-1.5,0.3c-0.1-0.1-0.2-0.2-0.3-0.3c-3.1-3-6.1-5.9-9.2-8.9C0.2,2.5,0.1,2.3,0,2
	c0-0.1,0-0.3,0-0.4c0.1-0.1,0.1-0.3,0.2-0.4C0.7,0.7,1.1,0.1,1.8,0C1.8,0,1.8,0,1.8,0z"/>
</svg>
