<?xml version="1.0" encoding="UTF-8"?>
<svg id="Layer_1" data-name="Layer 1" xmlns="http://www.w3.org/2000/svg" viewBox="0 0 25.13 25.13">
  <defs>
    <style>
      .cls-1 {
        fill: #42559d;
      }

      .cls-1, .cls-2 {
        stroke-width: 0px;
      }

      .cls-2 {
        fill: #fff;
      }
    </style>
  </defs>
  <rect class="cls-1" x="0" y="0" width="25.13" height="25.13" rx="12.56" ry="12.56"/>
  <path class="cls-2" d="m9.62,13.04v-1.76c.08-.21.11-.24.34-.24.31,0,.61,0,.92,0,.13,0,.25,0,.39,0,0-.07,0-.12,0-.17,0-.51,0-1.02.04-1.52.06-.67.34-1.25.87-1.68.44-.35.95-.52,1.5-.55.51-.02,1.02,0,1.53,0,.24,0,.3.07.3.3,0,.49,0,.99,0,1.48,0,.25-.06.31-.31.32-.36,0-.73,0-1.09.01-.33,0-.51.16-.52.48-.02.43,0,.85,0,1.28,0,0,.01.01.02.03.04,0,.09,0,.14,0,.47,0,.93,0,1.4,0,.24,0,.32.08.32.32,0,.54,0,1.09,0,1.63,0,.22-.07.29-.29.29-.48,0-.96,0-1.44,0-.05,0-.1,0-.16,0,0,.07,0,.12,0,.17,0,1.41,0,2.82,0,4.23,0,.16,0,.31-.2.37h-1.92c-.16-.06-.19-.18-.19-.34,0-1.42,0-2.84,0-4.25,0-.05,0-.1,0-.17-.07,0-.11,0-.16,0-.38,0-.76,0-1.14,0-.23,0-.27-.03-.34-.23Z"/>
</svg>