<?xml version="1.0" encoding="UTF-8"?>
<svg id="Layer_1" data-name="Layer 1" xmlns="http://www.w3.org/2000/svg" viewBox="0 0 25.13 25.13">
  <defs>
    <style>
      .cls-1 {
        fill: #9c795c;
      }

      .cls-1, .cls-2 {
        stroke-width: 0px;
      }

      .cls-2 {
        fill: #fff;
      }
    </style>
  </defs>
  <rect class="cls-1" x="0" y="0" width="25.13" height="25.13" rx="12.56" ry="12.56"/>
  <path class="cls-2" d="m7.1,12.55c0-.99,0-1.99,0-2.98,0-1.2.79-2.17,1.96-2.42.17-.04.35-.05.52-.05,1.99,0,3.98,0,5.97,0,1.21,0,2.19.79,2.43,1.96.04.17.05.35.05.52,0,1.99,0,3.98,0,5.97,0,1.21-.78,2.19-1.96,2.43-.17.04-.36.05-.53.05-1.98,0-3.96,0-5.94,0-1.29,0-2.27-.85-2.47-2.12-.02-.13-.02-.26-.02-.4,0-.99,0-1.97,0-2.96Zm9,0c0-1.96-1.59-3.54-3.55-3.53-1.95,0-3.53,1.58-3.53,3.53,0,1.96,1.58,3.54,3.54,3.54,1.96,0,3.54-1.59,3.54-3.54Zm.82-3.63c0-.42-.33-.75-.74-.75-.41,0-.75.33-.75.74,0,.41.33.75.74.75.41,0,.75-.33.75-.74Zm-2.36,3.65c0-1.11-.89-2-1.99-2.01-1.11,0-2.01.89-2.01,2,0,1.11.89,2,2,2,1.11,0,2-.89,2.01-2Z"/>
</svg>