<?xml version="1.0" encoding="UTF-8"?>
<svg id="Layer_1" data-name="Layer 1" xmlns="http://www.w3.org/2000/svg" viewBox="0 0 13 12.99">
  <defs>
    <style>
      .cls-1 {
        fill-rule: evenodd;
        stroke-width: 0px;
      }
    </style>
  </defs>
  <path class="cls-1" d="m12.12,5.7c-.22.19-.48.23-.73.07-.86-.52-1.71-1.04-2.57-1.57-.17-.1-.25-.25-.28-.44-.06-.36-.12-.73-.19-1.09-.03-.18-.11-.26-.29-.28-.83-.13-1.67-.18-2.51-.08-.2.02-.39.05-.59.07-.18.02-.26.1-.29.28-.07.37-.14.74-.21,1.11-.04.2-.13.34-.31.45-.84.51-1.68,1.02-2.52,1.53-.3.18-.55.15-.8-.09C-.43,4.48-.22,2.49,1.26,1.59,2.36.91,3.54.41,4.83.19c.55-.09,1.11-.13,1.67-.19,1.96.05,3.75.62,5.37,1.68,1.4.91,1.51,2.93.25,4.02Zm-7.95.43c.25-.18.53-.27.84-.27.99,0,1.98,0,2.97,0,.32,0,.61.1.86.29,1.19.88,2.39,1.75,3.58,2.62.35.25.56.59.57,1.02.01.68.02,1.36,0,2.03-.02.6-.55,1.11-1.15,1.16-.1,0-.19.01-.29.01h-5.05c-1.7,0-3.4,0-5.1,0-.65,0-1.14-.33-1.32-.9-.04-.11-.06-.24-.06-.36,0-.67-.01-1.34,0-2.02,0-.42.2-.76.54-1,1.21-.86,2.42-1.72,3.63-2.58Zm2.3,4.91c1.09,0,1.97-.85,1.98-1.92.01-1.07-.86-1.95-1.94-1.96-1.07,0-1.95.86-1.96,1.93,0,1.06.86,1.94,1.92,1.95Z"/>
</svg>