<?xml version="1.0" encoding="UTF-8"?>
<svg id="Layer_1" data-name="Layer 1" xmlns="http://www.w3.org/2000/svg" viewBox="0 0 25.13 25.13">
  <defs>
    <style>
      .cls-1 {
        fill: #74a5d6;
      }

      .cls-1, .cls-2 {
        stroke-width: 0px;
      }

      .cls-2 {
        fill: #fff;
      }
    </style>
  </defs>
  <rect class="cls-1" x="0" y="0" width="25.13" height="25.13" rx="12.56" ry="12.56"/>
  <path class="cls-2" d="m10.9,17.02h-.69s-.06-.01-.09-.02c-.95-.06-1.84-.32-2.67-.77-.12-.06-.23-.14-.34-.2,1.21.09,2.29-.2,3.28-.94-1.03-.09-1.71-.61-2.09-1.57.34.04.66.05.99-.04-1.35-.34-1.83-1.55-1.76-2.21.16.06.31.13.47.17.16.04.32.06.48.09-1.15-.87-1.1-2.28-.64-3,1.21,1.43,2.75,2.22,4.62,2.34-.01-.16-.03-.29-.03-.43,0-.14,0-.28.02-.42.14-1.04,1.03-1.86,2.08-1.91.65-.03,1.22.18,1.7.63.03.03.09.07.13.06.26-.07.52-.14.77-.23.2-.07.39-.18.6-.28-.17.52-.49.9-.92,1.2.42-.04.82-.16,1.23-.33-.03.04-.04.06-.06.08-.27.38-.59.72-.97,1-.07.05-.09.11-.09.2.02.44-.02.89-.1,1.32-.25,1.27-.8,2.38-1.69,3.32-1,1.06-2.23,1.67-3.68,1.86-.18.02-.36.04-.54.06Z"/>
</svg>